<mxfile host="Electron" modified="2024-01-17T11:18:16.774Z" agent="Mozilla/5.0 (X11; Linux x86_64) AppleWebKit/537.36 (KHTML, like Gecko) draw.io/22.1.18 Chrome/120.0.6099.199 Electron/28.1.2 Safari/537.36" etag="XXkWIJN_f_Qble6eP5yz" version="22.1.18" type="device">
  <diagram name="Page-1" id="nONDjBaq5zLHtIvz9lS9">
    <mxGraphModel dx="2899" dy="2214" grid="1" gridSize="10" guides="1" tooltips="1" connect="1" arrows="1" fold="1" page="1" pageScale="1" pageWidth="850" pageHeight="1100" math="0" shadow="0">
      <root>
        <mxCell id="0" />
        <mxCell id="1" parent="0" />
        <mxCell id="a7iSN0XRIdKCocgI0kgx-9" value="" style="rounded=0;whiteSpace=wrap;html=1;" vertex="1" parent="1">
          <mxGeometry x="-720" y="-760" width="320" height="340" as="geometry" />
        </mxCell>
        <mxCell id="a7iSN0XRIdKCocgI0kgx-1" value="Text" style="text;html=1;strokeColor=none;fillColor=none;align=center;verticalAlign=middle;whiteSpace=wrap;rounded=0;" vertex="1" parent="1">
          <mxGeometry x="390" y="390" width="60" height="30" as="geometry" />
        </mxCell>
        <mxCell id="a7iSN0XRIdKCocgI0kgx-2" value="&lt;div style=&quot;font-family: Hack, &amp;quot;Droid Sans Mono&amp;quot;, &amp;quot;monospace&amp;quot;, monospace; font-size: 14px; line-height: 19px;&quot;&gt;&lt;span style=&quot;background-color: rgb(255, 255, 255);&quot;&gt;... rebounded in October Investors are looking for signs that consumer spending one of the biggest drivers of the U S economy will recover during the holidays A report on industrial production weighed on the market [START_ENT] The Fed [END_ENT] said output at the nation s factories mines and utilities rose 0 1 percent in October less than the 0 4 percent predicted by economists polled by Thomson Reuters Meanwhile ...&lt;/span&gt;&lt;/div&gt;" style="text;html=1;strokeColor=none;fillColor=none;align=center;verticalAlign=middle;whiteSpace=wrap;rounded=0;" vertex="1" parent="1">
          <mxGeometry x="-770" y="-900" width="420" as="geometry" />
        </mxCell>
        <mxCell id="a7iSN0XRIdKCocgI0kgx-3" style="edgeStyle=orthogonalEdgeStyle;rounded=0;orthogonalLoop=1;jettySize=auto;html=1;exitX=0;exitY=0;exitDx=0;exitDy=0;" edge="1" parent="1" source="a7iSN0XRIdKCocgI0kgx-2" target="a7iSN0XRIdKCocgI0kgx-2">
          <mxGeometry relative="1" as="geometry" />
        </mxCell>
        <mxCell id="a7iSN0XRIdKCocgI0kgx-5" value="&lt;font style=&quot;font-size: 17px;&quot;&gt;The Fed (Columbia newspaper)&lt;/font&gt;" style="rounded=1;whiteSpace=wrap;html=1;" vertex="1" parent="1">
          <mxGeometry x="-670" y="-690" width="220" height="60" as="geometry" />
        </mxCell>
        <mxCell id="a7iSN0XRIdKCocgI0kgx-6" value="&lt;font style=&quot;font-size: 17px;&quot;&gt;Not In Candidates&lt;/font&gt;" style="rounded=1;whiteSpace=wrap;html=1;" vertex="1" parent="1">
          <mxGeometry x="-670" y="-600" width="220" height="60" as="geometry" />
        </mxCell>
        <mxCell id="a7iSN0XRIdKCocgI0kgx-7" value="&lt;font style=&quot;font-size: 17px;&quot;&gt;Federal Reserve Act&lt;/font&gt;" style="rounded=1;whiteSpace=wrap;html=1;" vertex="1" parent="1">
          <mxGeometry x="-670" y="-510" width="220" height="60" as="geometry" />
        </mxCell>
        <mxCell id="a7iSN0XRIdKCocgI0kgx-8" value="&lt;font style=&quot;font-size: 19px;&quot;&gt;Candidates&lt;/font&gt;" style="text;html=1;strokeColor=none;fillColor=none;align=center;verticalAlign=middle;whiteSpace=wrap;rounded=0;" vertex="1" parent="1">
          <mxGeometry x="-590" y="-750" width="60" height="30" as="geometry" />
        </mxCell>
        <mxCell id="a7iSN0XRIdKCocgI0kgx-14" style="edgeStyle=orthogonalEdgeStyle;rounded=0;orthogonalLoop=1;jettySize=auto;html=1;exitX=1;exitY=0.5;exitDx=0;exitDy=0;entryX=0;entryY=0.5;entryDx=0;entryDy=0;" edge="1" parent="1" source="a7iSN0XRIdKCocgI0kgx-10" target="a7iSN0XRIdKCocgI0kgx-13">
          <mxGeometry relative="1" as="geometry" />
        </mxCell>
        <mxCell id="a7iSN0XRIdKCocgI0kgx-10" value="&lt;font style=&quot;font-size: 16px;&quot;&gt;MODEL&lt;/font&gt;" style="rounded=0;whiteSpace=wrap;html=1;" vertex="1" parent="1">
          <mxGeometry x="-80" y="-790" width="210" height="110" as="geometry" />
        </mxCell>
        <mxCell id="a7iSN0XRIdKCocgI0kgx-11" value="" style="endArrow=classic;html=1;rounded=0;exitX=1;exitY=0.5;exitDx=0;exitDy=0;entryX=0;entryY=0.5;entryDx=0;entryDy=0;" edge="1" parent="1" source="a7iSN0XRIdKCocgI0kgx-9" target="a7iSN0XRIdKCocgI0kgx-10">
          <mxGeometry width="50" height="50" relative="1" as="geometry">
            <mxPoint x="-460" y="-670" as="sourcePoint" />
            <mxPoint x="-410" y="-720" as="targetPoint" />
          </mxGeometry>
        </mxCell>
        <mxCell id="a7iSN0XRIdKCocgI0kgx-12" value="" style="endArrow=classic;html=1;rounded=0;entryX=0;entryY=0.5;entryDx=0;entryDy=0;" edge="1" parent="1" target="a7iSN0XRIdKCocgI0kgx-10">
          <mxGeometry width="50" height="50" relative="1" as="geometry">
            <mxPoint x="-350" y="-930" as="sourcePoint" />
            <mxPoint x="-410" y="-720" as="targetPoint" />
          </mxGeometry>
        </mxCell>
        <mxCell id="a7iSN0XRIdKCocgI0kgx-13" value="Not In Candidates" style="rounded=1;whiteSpace=wrap;html=1;fontSize=17;labelBackgroundColor=#99FF99;fillColor=#99FF99;strokeColor=#82b366;" vertex="1" parent="1">
          <mxGeometry x="290" y="-765" width="120" height="60" as="geometry" />
        </mxCell>
        <mxCell id="a7iSN0XRIdKCocgI0kgx-15" value="" style="endArrow=classic;html=1;rounded=0;exitX=1;exitY=0.75;exitDx=0;exitDy=0;" edge="1" parent="1" source="a7iSN0XRIdKCocgI0kgx-9">
          <mxGeometry width="50" height="50" relative="1" as="geometry">
            <mxPoint x="-60" y="-650" as="sourcePoint" />
            <mxPoint x="290" y="-505" as="targetPoint" />
          </mxGeometry>
        </mxCell>
        <mxCell id="a7iSN0XRIdKCocgI0kgx-16" value="&lt;font style=&quot;font-size: 22px;&quot;&gt;Correct Candidate&lt;/font&gt;" style="edgeLabel;html=1;align=center;verticalAlign=middle;resizable=0;points=[];" vertex="1" connectable="0" parent="a7iSN0XRIdKCocgI0kgx-15">
          <mxGeometry x="0.1002" y="2" relative="1" as="geometry">
            <mxPoint as="offset" />
          </mxGeometry>
        </mxCell>
        <mxCell id="a7iSN0XRIdKCocgI0kgx-17" value="Not In Candidates" style="rounded=1;whiteSpace=wrap;html=1;fontSize=17;" vertex="1" parent="1">
          <mxGeometry x="290" y="-540" width="120" height="70" as="geometry" />
        </mxCell>
      </root>
    </mxGraphModel>
  </diagram>
</mxfile>
